<svg width="36" height="36" viewBox="0 0 36 36" fill="none" xmlns="http://www.w3.org/2000/svg">
<path d="M0 0H36V36H0V0Z" fill="white"/>
<path fill-rule="evenodd" clip-rule="evenodd" d="M18 30C24.6274 30 30 24.6274 30 18C30 11.3726 24.6274 6 18 6C11.3726 6 6 11.3726 6 18C6 24.6274 11.3726 30 18 30ZM23.7071 15.7071C24.0976 15.3166 24.0976 14.6834 23.7071 14.2929C23.3166 13.9024 22.6834 13.9024 22.2929 14.2929L16 20.5858L13.7071 18.2929C13.3166 17.9024 12.6834 17.9024 12.2929 18.2929C11.9024 18.6834 11.9024 19.3166 12.2929 19.7071L15.2929 22.7071L16 23.4142L16.7071 22.7071L23.7071 15.7071Z" fill="black"/>
</svg>
